<?xml version="1.0" standalone="no"?>
<!DOCTYPE svg PUBLIC "-//W3C//DTD SVG 20010904//EN"
 "http://www.w3.org/TR/2001/REC-SVG-20010904/DTD/svg10.dtd">
<svg version="1.0" xmlns="http://www.w3.org/2000/svg"
 width="2048.000000pt" height="2048.000000pt" viewBox="0 0 2048.000000 2048.000000"
 preserveAspectRatio="xMidYMid meet">

<g transform="translate(0.000000,2048.000000) scale(0.100000,-0.100000)"
fill="#000000" stroke="none">
<path d="M7885 20243 c-196 -19 -907 -164 -1077 -220 -247 -81 -295 -166 -230
-399 87 -312 84 -498 -13 -760 -75 -202 -195 -413 -343 -603 -131 -169 -528
-546 -752 -715 -242 -182 -419 -219 -526 -110 -67 69 -79 118 -79 309 1 122 6
189 23 280 32 171 100 446 172 695 35 118 69 240 76 270 24 100 -14 168 -100
177 -92 11 -162 -56 -341 -326 -159 -241 -254 -409 -420 -746 -311 -627 -509
-1126 -685 -1724 -38 -128 -72 -236 -75 -239 -9 -9 -22 15 -42 73 -14 40 -17
87 -18 230 0 130 -4 186 -13 203 -32 55 -129 80 -190 48 -108 -57 -336 -394
-535 -791 -212 -425 -353 -787 -517 -1331 -248 -822 -320 -1206 -339 -1817
-14 -456 4 -676 98 -1217 126 -718 122 -702 202 -883 68 -151 261 -527 341
-662 36 -60 80 -139 98 -175 62 -124 103 -160 183 -160 81 0 147 70 147 155 0
23 -9 90 -21 151 -75 395 8 1023 203 1544 54 143 125 306 132 299 2 -2 18 -62
34 -134 17 -71 56 -220 87 -330 32 -110 59 -214 61 -231 4 -42 96 -296 155
-427 60 -134 124 -245 198 -341 115 -151 187 -182 257 -112 42 42 44 73 9 219
-46 197 -58 327 -52 597 3 136 13 296 21 360 35 253 99 497 163 625 l29 57 71
-213 c40 -118 102 -293 139 -389 37 -96 77 -205 90 -242 64 -188 201 -406 433
-692 53 -65 106 -133 118 -151 28 -43 303 -317 408 -407 44 -38 112 -98 150
-134 137 -126 216 -176 336 -213 36 -11 102 -38 146 -59 123 -60 158 -69 258
-68 79 1 96 4 136 28 67 39 127 127 144 208 20 102 24 110 55 110 16 0 40 -4
55 -10 14 -5 43 -12 63 -15 21 -2 76 -20 122 -38 164 -66 188 -70 391 -71 124
-1 191 3 200 10 8 7 50 15 94 18 117 10 276 35 289 44 6 5 47 17 91 27 126 28
254 106 281 172 14 32 15 32 66 26 29 -3 90 -14 136 -24 45 -11 102 -19 127
-19 102 0 195 78 233 195 27 82 27 114 1 171 -36 75 -119 122 -220 123 -25 0
-97 18 -164 41 -66 23 -129 43 -139 45 -49 11 -196 129 -232 187 -45 70 -26
200 31 214 36 9 101 -1 129 -20 14 -9 48 -36 76 -61 58 -52 89 -57 125 -20 30
29 33 87 8 155 -58 161 43 424 292 755 163 217 354 415 598 618 228 190 286
233 592 437 288 192 364 248 540 395 66 56 156 127 200 160 111 81 194 163
216 210 25 55 24 137 -2 192 -11 23 -41 65 -66 93 -45 50 -161 140 -180 140
-15 0 -154 112 -190 154 -51 57 -71 106 -84 202 -14 104 -7 209 16 256 22 42
101 125 140 145 41 22 91 18 215 -16 164 -47 221 -54 355 -46 130 8 173 20
199 56 33 48 22 77 -61 160 -193 190 -210 218 -200 323 9 91 22 126 78 212 61
93 261 300 356 367 312 223 606 367 898 442 144 37 271 51 540 60 99 3 214 10
255 16 95 12 303 -2 551 -36 101 -14 222 -30 269 -35 101 -11 332 -62 445 -97
43 -14 102 -31 130 -38 52 -14 256 -102 313 -136 18 -10 39 -19 45 -19 7 0 59
-30 117 -66 58 -37 134 -82 170 -101 36 -20 107 -64 157 -99 51 -35 97 -64
102 -64 22 0 334 -305 420 -410 29 -36 61 -72 70 -80 45 -38 230 -290 215
-290 -4 0 0 -8 8 -17 8 -10 32 -47 53 -83 21 -36 42 -67 45 -70 3 -3 26 -36
49 -75 24 -38 47 -72 50 -75 4 -3 18 -21 31 -40 42 -62 163 -222 187 -248 13
-14 33 -42 45 -61 12 -20 105 -120 207 -223 215 -215 263 -266 311 -328 19
-25 37 -47 40 -50 4 -3 22 -27 40 -55 19 -27 40 -56 47 -63 7 -7 13 -19 13
-25 0 -7 15 -34 33 -62 19 -27 53 -81 77 -120 24 -38 53 -86 65 -105 27 -42
55 -92 130 -228 84 -151 119 -179 190 -152 43 16 129 112 174 194 45 82 64
169 51 234 -8 39 -63 279 -107 467 -14 61 -26 117 -25 125 2 73 -125 337 -234
485 -25 33 -63 87 -86 120 -23 33 -47 65 -53 70 -7 6 -27 33 -46 60 -18 28
-36 52 -41 53 -4 2 -8 8 -8 14 0 6 -25 46 -55 89 -31 44 -58 86 -61 94 -4 10
21 27 83 59 170 85 234 157 267 299 23 98 -4 222 -83 383 -38 77 -132 229
-155 249 -6 6 -29 33 -51 60 -22 28 -73 87 -115 133 -41 46 -75 87 -75 91 0 5
-18 28 -41 52 -23 24 -65 71 -95 103 -59 65 -248 236 -260 236 -4 0 -61 39
-126 86 -65 48 -125 89 -133 92 -8 3 -67 46 -132 96 -64 50 -166 123 -227 161
-60 39 -110 73 -111 76 0 7 105 27 285 55 141 21 381 29 490 15 127 -16 465
-41 563 -41 96 0 137 14 175 59 51 61 25 157 -64 234 -27 23 -72 72 -99 108
-27 36 -88 106 -137 155 -126 128 -313 337 -313 351 0 14 -191 193 -206 193
-6 0 -17 6 -23 14 -10 12 0 17 58 30 38 9 102 20 142 26 85 12 114 28 136 74
22 48 10 83 -46 136 -62 58 -137 99 -203 110 -569 97 -736 128 -922 169 -201
45 -372 76 -451 83 -29 3 -30 4 -27 53 3 42 0 54 -20 72 -59 55 -252 115 -430
132 -57 5 -355 12 -663 15 -554 6 -561 6 -680 31 -299 64 -710 145 -817 161
-65 10 -116 20 -113 22 11 12 302 19 407 10 127 -10 152 -5 168 36 5 15 23 27
51 35 95 29 112 64 58 125 -48 55 -137 93 -269 115 -428 72 -626 72 -1235 1
-137 -16 -353 -38 -480 -50 -447 -40 -855 -127 -949 -202 -36 -29 -50 -33
-160 -45 -156 -17 -393 -61 -676 -124 -359 -80 -506 -103 -744 -115 -194 -10
-443 37 -510 97 -75 65 -52 132 93 282 158 163 293 264 466 347 137 65 221 94
350 119 126 25 186 51 215 91 44 61 34 141 -23 184 -50 38 -215 66 -457 77
-113 5 -333 16 -490 25 -263 13 -507 16 -605 7z m-3089 -1770 c-10 -10 -19 5
-10 18 6 11 8 11 12 0 2 -7 1 -15 -2 -18z m-1036 -7613 c0 -11 -2 -20 -5 -20
-2 0 -9 9 -15 20 -9 16 -8 20 5 20 8 0 15 -9 15 -20z"/>
<path d="M12000 11810 c-19 -4 -66 -13 -105 -18 -147 -21 -251 -80 -297 -170
-15 -29 -39 -106 -53 -170 -15 -64 -33 -143 -41 -175 -8 -32 -17 -109 -20
-170 -6 -102 -5 -116 14 -153 39 -77 133 -95 192 -36 14 15 43 70 63 123 52
134 54 136 113 122 27 -6 103 -23 169 -38 66 -14 160 -36 209 -47 48 -12 105
-22 125 -24 20 -1 68 -10 106 -19 39 -9 86 -18 105 -19 19 -2 71 -10 115 -19
111 -22 274 -50 310 -53 17 -1 68 -9 115 -17 47 -9 130 -23 185 -31 55 -9 138
-23 185 -32 47 -8 101 -17 122 -18 44 -5 168 -31 265 -57 39 -10 80 -19 90
-19 11 0 51 -11 90 -24 39 -13 73 -22 76 -20 2 3 35 -6 73 -19 38 -14 112 -37
164 -52 52 -15 121 -36 154 -47 32 -11 68 -21 80 -23 11 -2 48 -12 80 -24 33
-12 61 -19 63 -17 3 2 36 -6 75 -20 38 -13 73 -23 76 -23 28 4 34 -3 28 -31
-3 -17 -1 -41 4 -55 12 -32 66 -82 110 -102 19 -8 53 -28 77 -44 23 -16 45
-29 48 -29 9 0 96 -63 92 -66 -2 -2 -30 5 -63 14 -32 10 -100 19 -149 21 -90
2 -90 2 -137 -34 -26 -19 -52 -44 -58 -55 -15 -27 -20 -26 -79 21 -28 22 -51
38 -51 35 0 -4 -25 12 -55 34 -30 22 -55 38 -55 35 0 -7 -55 31 -84 57 -11 10
-24 18 -29 18 -6 0 -32 14 -60 31 -28 17 -57 32 -66 34 -15 3 -47 16 -199 86
-34 16 -68 29 -76 29 -7 0 -39 11 -70 25 -31 14 -70 27 -87 30 -18 3 -39 10
-48 14 -73 39 -565 180 -621 178 -8 0 -58 7 -110 16 -449 77 -801 99 -1084 70
-95 -10 -101 -11 -132 -45 -20 -22 -34 -51 -39 -76 l-7 -41 -149 0 c-178 0
-283 -9 -318 -27 -14 -8 -30 -14 -36 -14 -5 0 -24 -13 -41 -29 -86 -78 -25
-171 131 -200 67 -12 96 -31 49 -31 -16 0 -58 8 -94 19 -116 33 -151 34 -226
10 -84 -27 -139 -63 -226 -150 -113 -114 -145 -204 -113 -324 16 -57 16 -73 6
-123 -14 -64 -67 -196 -85 -215 -7 -7 -32 -41 -55 -77 -59 -87 -117 -147 -171
-175 -25 -13 -55 -34 -68 -48 -31 -33 -39 -94 -18 -135 18 -35 26 -41 58 -47
33 -6 187 -55 226 -71 37 -16 37 -31 2 -89 -10 -16 -49 -86 -86 -155 -123
-230 -208 -349 -367 -518 -117 -123 -195 -190 -322 -275 -49 -33 -112 -79
-140 -100 -69 -55 -310 -170 -425 -203 -52 -15 -102 -31 -110 -35 -8 -5 -60
-20 -115 -34 -55 -15 -109 -32 -120 -39 -21 -13 -167 -60 -225 -71 -19 -4 -40
-11 -46 -16 -6 -5 -59 -20 -119 -34 -59 -14 -126 -34 -149 -44 -22 -10 -75
-33 -116 -50 -126 -53 -176 -90 -351 -259 -102 -98 -150 -154 -254 -295 -125
-170 -168 -271 -215 -506 -36 -182 -47 -320 -30 -390 20 -86 129 -184 219
-198 53 -8 213 -5 220 4 3 5 21 15 40 21 46 16 130 81 147 114 17 33 18 82 2
111 -6 12 -31 47 -55 78 -35 45 -43 63 -43 97 0 103 98 228 295 377 44 33 85
65 90 71 19 21 171 122 222 148 28 14 54 30 57 35 3 4 59 32 123 61 65 29 125
58 133 65 8 7 67 36 130 64 63 29 122 61 131 71 9 10 72 46 140 80 68 35 126
66 129 70 8 11 109 46 192 65 83 19 136 15 164 -12 26 -27 14 -109 -30 -198
-83 -168 -345 -464 -491 -554 -38 -24 -92 -59 -120 -77 -27 -18 -90 -51 -140
-74 -49 -23 -101 -47 -115 -54 -14 -8 -45 -17 -70 -20 -82 -13 -150 -29 -150
-37 0 -4 -12 -10 -26 -13 -43 -11 -102 -54 -133 -96 -40 -55 -55 -116 -49
-204 4 -61 11 -85 42 -141 39 -71 39 -70 -6 -95 -9 -6 -57 -21 -106 -34 -48
-13 -97 -28 -108 -34 -10 -6 -48 -20 -83 -31 -96 -31 -143 -62 -169 -114 -12
-24 -22 -55 -22 -69 0 -43 41 -88 110 -123 67 -33 240 -92 275 -94 11 0 54 -7
95 -15 41 -8 78 -12 82 -10 5 3 47 -2 94 -11 48 -9 88 -14 91 -12 2 3 43 -4
90 -14 48 -10 88 -17 90 -15 3 2 39 -7 81 -20 42 -14 85 -27 95 -29 36 -8 107
-49 133 -76 40 -42 35 -94 -17 -194 -77 -149 -256 -337 -417 -439 -23 -14 -51
-34 -61 -43 -24 -20 -173 -102 -261 -144 -36 -16 -92 -43 -125 -59 -33 -15
-94 -38 -135 -51 -41 -12 -79 -25 -85 -29 -5 -4 -41 -13 -80 -20 -38 -7 -95
-19 -125 -26 -30 -8 -85 -14 -122 -14 -43 0 -68 -4 -68 -11 0 -8 -69 -9 -246
-5 -136 4 -250 9 -254 11 -5 3 -48 7 -97 10 -48 3 -113 10 -145 16 -31 5 -73
10 -95 11 -21 0 -80 9 -132 19 -51 11 -105 19 -118 19 -34 0 -235 46 -358 81
-55 16 -110 31 -123 34 -40 7 -64 16 -155 57 -48 22 -97 41 -108 43 -11 2 -73
32 -137 66 -64 33 -126 63 -136 65 -11 2 -22 7 -25 12 -7 10 -242 146 -256
148 -12 2 -147 83 -155 93 -9 11 -136 91 -145 91 -4 0 -49 31 -99 68 -109 82
-250 219 -334 323 -89 111 -113 129 -172 129 -76 0 -112 -48 -124 -160 -10
-94 -23 -126 -64 -159 -81 -64 -234 -76 -464 -36 -133 24 -308 44 -323 39 -24
-9 -270 28 -385 58 -63 16 -124 31 -135 32 -77 10 -255 91 -384 175 -52 33
-109 63 -127 67 -50 9 -101 -20 -124 -72 -27 -59 -25 -82 12 -150 17 -33 40
-76 50 -96 31 -59 149 -189 246 -270 99 -83 258 -196 312 -222 19 -9 69 -41
110 -72 132 -98 301 -200 440 -264 74 -35 140 -66 145 -71 17 -13 219 -99 232
-99 16 0 175 -70 287 -127 50 -25 98 -47 108 -48 23 -5 228 -117 228 -125 0
-12 -157 -99 -208 -115 -51 -16 -55 -16 -121 4 -90 27 -113 26 -150 -5 -57
-47 -39 -120 61 -256 46 -63 138 -148 160 -148 6 0 44 -28 87 -62 79 -63 248
-179 266 -182 6 -1 77 -39 158 -85 82 -46 154 -84 161 -85 7 -1 73 -32 147
-68 74 -37 145 -69 159 -71 28 -6 101 -34 205 -79 39 -17 80 -32 91 -34 12 -1
73 -21 135 -43 62 -23 124 -44 138 -46 14 -2 67 -15 116 -29 50 -15 110 -28
135 -31 25 -2 89 -13 143 -25 55 -11 102 -18 105 -16 4 2 56 -4 116 -15 60
-10 112 -16 116 -14 4 3 54 -2 110 -11 57 -8 109 -13 116 -10 14 6 129 -17
194 -39 25 -8 61 -29 79 -45 39 -36 36 -51 -19 -125 -20 -27 -43 -61 -50 -75
-7 -14 -32 -50 -55 -80 -68 -88 -99 -156 -99 -222 -2 -110 54 -147 234 -155
73 -3 120 -1 120 5 0 10 78 18 275 28 61 4 114 10 120 15 5 5 41 9 80 9 38 0
129 7 200 15 72 9 155 18 185 21 30 3 62 8 70 12 8 3 49 11 90 18 120 19 421
92 430 104 3 3 41 17 85 30 44 12 82 26 85 29 3 4 34 15 70 26 36 10 74 23 85
30 11 6 49 22 85 35 36 13 67 27 70 31 3 3 39 19 80 33 41 15 77 31 80 35 3 4
21 13 40 20 l35 12 -45 -46 c-25 -25 -74 -69 -110 -97 -36 -29 -76 -64 -90
-78 -14 -14 -50 -45 -79 -70 -30 -25 -94 -84 -142 -131 -76 -75 -90 -93 -104
-143 -18 -63 -15 -94 16 -138 23 -32 100 -80 134 -84 13 -1 41 -8 62 -15 20
-6 68 -11 105 -11 68 2 227 33 283 57 17 7 53 18 80 25 28 8 59 19 70 26 11 6
46 19 78 28 31 9 57 21 57 26 0 4 17 14 38 20 55 18 227 104 304 153 102 65
212 139 218 146 3 4 26 22 52 39 26 18 62 46 80 63 29 27 64 54 182 136 41 29
56 28 56 -1 0 -32 45 -85 91 -105 29 -13 53 -15 115 -10 84 7 89 5 219 -57 28
-13 56 -24 62 -24 7 0 32 -8 55 -19 55 -24 138 -53 160 -55 9 -1 33 -9 55 -18
38 -15 153 -53 163 -53 10 0 126 -38 158 -52 18 -8 44 -16 56 -19 13 -2 40
-11 60 -19 20 -8 36 -13 36 -11 0 3 19 -2 43 -10 23 -9 54 -17 69 -19 15 -2
40 -11 56 -19 16 -8 32 -13 34 -10 3 2 24 -3 48 -11 24 -8 45 -13 47 -11 3 2
19 0 36 -5 18 -6 48 -12 67 -15 19 -2 43 -7 53 -10 10 -3 33 -7 52 -10 19 -2
52 -6 73 -9 111 -15 165 -17 357 -19 176 -1 255 4 490 30 154 17 298 37 320
43 22 6 57 11 77 11 20 0 40 5 43 10 3 6 24 10 45 10 21 0 41 4 44 9 3 5 24
12 46 15 22 3 58 9 80 12 22 3 43 10 46 15 3 5 20 9 39 9 19 0 37 5 40 10 3 6
15 10 26 10 23 0 115 27 141 41 10 5 26 9 35 9 18 1 109 30 128 42 6 3 25 9
43 13 18 4 45 13 60 21 15 8 32 14 38 14 7 0 25 7 40 15 16 8 36 15 45 15 9 0
22 7 29 15 7 8 19 15 27 15 8 0 29 6 46 14 18 8 61 27 97 41 36 15 83 35 106
46 22 10 46 19 52 19 7 0 12 5 12 10 0 6 5 10 12 10 6 0 30 8 52 19 23 10 68
31 101 45 33 15 67 31 75 36 8 6 26 15 40 20 14 6 32 15 40 20 8 6 33 20 55
31 22 11 81 42 130 69 50 28 106 57 125 66 19 9 37 19 40 23 3 4 41 27 85 51
44 24 82 47 85 50 3 4 24 17 48 29 23 12 42 26 42 31 0 5 8 11 19 15 21 6 207
125 233 149 9 8 35 24 58 36 22 11 40 24 40 28 0 4 20 18 45 32 25 14 45 28
45 32 0 4 13 14 28 22 16 8 47 30 69 48 23 18 66 53 97 78 51 40 130 125 194
206 29 38 45 98 37 142 -7 35 -53 107 -63 97 -3 -2 -11 0 -19 6 -22 19 -72 20
-179 5 -92 -12 -307 -15 -364 -4 -63 12 -172 51 -177 64 -3 8 -9 12 -13 9 -4
-2 -15 4 -25 15 -10 11 -23 20 -29 20 -27 0 -185 198 -170 213 3 2 -4 29 -15
58 -51 140 -66 387 -37 594 22 156 134 533 164 555 4 3 26 37 49 75 60 101
144 197 210 241 32 21 64 44 71 51 22 21 120 46 150 37 15 -4 29 -8 32 -8 14
-3 68 -44 92 -69 32 -34 98 -122 98 -131 0 -4 24 -57 54 -119 74 -154 86 -182
86 -203 0 -10 11 -49 24 -88 29 -86 63 -214 64 -241 1 -32 50 -177 69 -206 19
-28 83 -85 83 -75 0 4 9 2 20 -4 23 -12 130 4 130 19 0 5 13 14 29 20 15 7 44
29 64 49 46 48 135 183 167 252 14 30 28 58 32 61 8 5 86 196 108 264 7 22 18
49 25 60 7 11 32 83 55 160 24 77 46 142 50 145 6 5 15 35 59 205 12 44 25 87
30 96 5 9 22 72 36 140 15 68 33 144 40 169 8 25 21 97 30 160 9 63 21 124 25
135 5 11 16 83 25 160 8 77 19 174 24 215 18 147 34 307 42 420 10 156 28 564
24 570 -2 3 -6 82 -10 175 -3 94 -13 220 -21 280 -9 61 -17 138 -20 173 -3 35
-19 130 -36 210 -17 81 -32 161 -33 177 -3 43 -28 143 -71 280 -20 66 -38 132
-40 147 -3 25 -71 219 -99 283 -41 92 -56 130 -59 149 -8 40 -79 190 -180 381
-27 49 -50 98 -52 109 -2 11 -7 22 -12 25 -4 3 -26 38 -47 76 -21 39 -46 81
-55 95 -9 14 -35 52 -56 85 -21 33 -41 62 -44 65 -13 13 -107 157 -113 171 -4
13 5 20 41 29 26 7 52 16 57 20 6 5 56 22 112 38 168 50 196 71 221 164 10 37
-5 77 -39 104 -20 15 -97 35 -139 36 -19 0 -59 7 -88 15 -30 8 -56 13 -58 10
-3 -3 -33 4 -66 14 -34 10 -64 16 -68 14 -4 -3 -32 3 -61 11 -30 9 -65 17 -79
19 -14 1 -45 7 -70 13 -25 5 -81 18 -125 27 -44 10 -105 24 -135 32 -30 9 -64
16 -75 18 -11 1 -40 8 -65 15 -25 7 -55 14 -67 15 -12 2 -44 10 -70 18 -26 8
-84 24 -128 36 -169 47 -342 97 -420 123 -33 11 -69 21 -80 23 -20 3 -92 27
-210 70 -55 20 -80 29 -185 66 -19 6 -62 22 -95 35 -33 13 -66 24 -73 24 -7 0
-45 13 -83 30 -39 16 -73 29 -77 28 -9 -3 -78 21 -110 38 -15 8 -34 14 -42 14
-8 0 -46 11 -85 24 -66 22 -149 47 -345 103 -119 34 -230 67 -335 99 -49 15
-97 27 -105 26 -8 0 -51 12 -95 26 -44 15 -87 27 -95 28 -8 1 -54 13 -102 28
-48 14 -91 25 -95 24 -4 -1 -53 9 -108 24 -129 34 -292 70 -330 74 -16 1 -72
12 -123 23 -51 12 -96 19 -100 17 -4 -2 -38 2 -77 10 -147 29 -714 53 -795 34z"/>
<path d="M18340 10560 c-130 -11 -336 -70 -399 -115 -52 -38 -81 -78 -81 -114
0 -10 -4 -21 -10 -23 -19 -6 31 -288 71 -393 11 -30 20 -58 21 -62 1 -19 44
-67 91 -102 60 -44 130 -61 224 -54 l62 5 10 -41 c6 -22 15 -58 21 -78 17 -69
40 -267 45 -398 8 -178 14 -439 20 -900 7 -469 9 -539 25 -682 9 -84 10 -144
2 -244 -6 -74 -11 -204 -11 -289 0 -168 -7 -274 -21 -305 -5 -11 -16 -76 -26
-145 -9 -69 -20 -132 -25 -141 -4 -8 -16 -80 -25 -160 -10 -79 -21 -146 -25
-149 -3 -3 -12 -69 -20 -147 -7 -79 -16 -143 -21 -143 -4 0 -8 -31 -8 -68 0
-79 18 -106 80 -117 73 -13 142 87 212 305 18 58 36 107 39 110 4 3 21 59 38
125 18 66 38 134 46 150 8 17 29 82 47 145 17 63 35 117 39 120 4 3 26 64 49
135 23 72 46 135 51 140 8 11 69 193 69 207 0 5 9 27 20 51 11 23 29 74 40
112 12 39 28 95 37 125 9 30 20 57 23 60 4 3 22 64 40 135 18 72 38 144 46
160 7 17 23 89 35 160 13 72 26 132 30 135 3 3 14 73 23 155 9 83 21 177 26
210 15 94 15 461 1 530 -15 71 -38 138 -64 183 -10 17 -16 32 -13 32 9 0 -54
61 -90 86 l-29 21 0 409 c-1 225 -4 423 -9 439 -56 210 -107 318 -169 361 -81
58 -238 84 -337 57 -25 -7 -46 -6 -74 4 -21 7 -39 12 -40 11 0 -1 -39 -4 -86
-8z m340 -3489 c0 -6 -4 -13 -10 -16 -5 -3 -10 1 -10 9 0 9 5 16 10 16 6 0 10
-4 10 -9z"/>
<path d="M9285 6973 c-11 -3 -22 -9 -25 -13 -3 -4 -30 -15 -60 -25 -132 -42
-248 -132 -309 -239 -59 -102 -37 -153 66 -155 19 -1 40 -10 51 -22 39 -41 79
-40 220 4 74 22 153 89 203 171 36 58 57 174 39 220 -19 52 -104 79 -185 59z"/>
<path d="M7820 5005 c-67 -17 -104 -40 -143 -86 -61 -70 -72 -103 -71 -204 1
-107 16 -145 94 -220 28 -27 52 -48 53 -46 2 5 56 -28 75 -46 31 -29 258 -77
323 -67 54 8 139 55 172 94 29 34 52 139 45 209 -8 82 -75 197 -119 205 -27 4
-134 48 -149 60 -37 30 -161 96 -196 104 -25 5 -55 4 -84 -3z"/>
<path d="M4830 2364 c-43 -7 -105 -26 -110 -34 -8 -12 -131 -67 -165 -74 -16
-3 -91 -8 -165 -11 -141 -6 -273 11 -379 49 -24 9 -46 14 -48 12 -3 -2 -29 7
-59 20 -59 26 -133 31 -180 14 -33 -13 -192 -155 -205 -184 -5 -12 -21 -39
-34 -61 -49 -80 -26 -164 71 -256 184 -176 250 -211 534 -279 125 -30 237 -49
275 -47 27 1 351 -30 505 -49 139 -17 424 -19 510 -4 30 5 100 17 155 25 55 9
104 20 109 25 6 6 18 10 28 10 26 0 238 70 238 78 0 4 25 20 55 36 107 56 183
142 171 192 -14 55 -165 170 -236 179 -8 1 -61 18 -118 38 -56 20 -128 39
-160 42 -66 5 -191 38 -236 62 -17 9 -35 18 -41 19 -5 1 -68 38 -139 83 -71
45 -138 81 -150 81 -11 0 -41 6 -66 14 -54 16 -126 25 -160 20z"/>
</g>
</svg>
